Coordinates
version=1
nRows=60
nColumns=12
inDegrees=yes

Units are S.I. units (second, meters, Newtons, ...)
Angles are in degrees

endheader
time	SC_y	SC_z	SC_x	AC_y	AC_z	AC_x	GH_y	GH_z	GH_yy	EL_x	PS_y
       0.0              -43.59          19.41          37.18          50.48         -12.88          6.269         -42.75          66.02          178.8          48.13          62.61
   0.01258              -43.59          19.41          37.19          50.48         -12.88          6.269         -42.73          66.01          178.7          48.13          62.62
   0.02517              -43.59          19.41          37.19          50.48         -12.88          6.269         -42.71           66.0          178.7          48.13          62.62
   0.03775              -43.59          19.41           37.2          50.48         -12.88          6.269         -42.69          65.99          178.6          48.13          62.63
   0.05034              -43.59          19.42          37.21          50.48         -12.88          6.269         -42.66          65.97          178.6          48.13          62.64
   0.06292              -43.59          19.42          37.22          50.48         -12.88          6.269         -42.64          65.96          178.5          48.13          62.66
   0.07551              -43.59          19.42          37.23          50.48         -12.88          6.269         -42.61          65.95          178.4          48.13          62.67
   0.08809              -43.59          19.42          37.24          50.48         -12.88          6.269         -42.59          65.93          178.4          48.13          62.68
    0.1007              -43.59          19.43          37.25          50.48         -12.88          6.269         -42.56          65.91          178.3          48.13          62.69
    0.1133              -43.59          19.43          37.26          50.49         -12.88          6.269         -42.52           65.9          178.2          48.13          62.71
    0.1258              -43.58          19.43          37.27          50.49         -12.88          6.269         -42.49          65.88          178.1          48.13          62.72
    0.1384              -43.58          19.44          37.28          50.49         -12.88          6.269         -42.45          65.86          178.1          48.13          62.74
     0.151              -43.58          19.44           37.3          50.49         -12.88          6.269         -42.41          65.84          178.0          48.13          62.76
    0.1636              -43.58          19.45          37.31          50.49         -12.88          6.269         -42.37          65.81          177.9          48.13          62.78
    0.1762              -43.58          19.45          37.33          50.49         -12.88          6.269         -42.32          65.79          177.8          48.13           62.8
    0.1888              -43.58          19.46          37.35          50.49         -12.88          6.269         -42.27          65.76          177.6          48.13          62.82
    0.2014              -43.58          19.46          37.36          50.49         -12.88          6.269         -42.22          65.73          177.5          48.13          62.85
    0.2139              -43.58          19.47          37.39           50.5         -12.88          6.269         -42.16          65.69          177.4          48.13          62.87
    0.2265              -43.57          19.48          37.41           50.5         -12.88          6.269         -42.09          65.66          177.2          48.13           62.9
    0.2391              -43.57          19.48          37.43           50.5         -12.88           6.27         -42.02          65.62          177.0          48.13          62.94
    0.2517              -43.57          19.49          37.46           50.5         -12.88           6.27         -41.94          65.58          176.9          48.13          62.97
    0.2643              -43.57           19.5          37.49          50.51         -12.89           6.27         -41.86          65.53          176.6          48.13          63.01
    0.2769              -43.57          19.51          37.52          50.51         -12.89           6.27         -41.76          65.48          176.4          48.14          63.05
    0.2895              -43.56          19.52          37.56          50.51         -12.89           6.27         -41.66          65.42          176.2          48.14           63.1
     0.302              -43.56          19.54           37.6          50.51         -12.89           6.27         -41.54          65.35          175.9          48.14          63.15
    0.3146              -43.56          19.55          37.65          50.52         -12.89           6.27         -41.41          65.28          175.6          48.14          63.21
    0.3272              -43.55          19.57           37.7          50.52         -12.89           6.27         -41.26           65.2          175.2          48.14          63.28
    0.3398              -43.55          19.58          37.75          50.53         -12.89           6.27          -41.1          65.11          174.8          48.14          63.35
    0.3524              -43.54           19.6          37.82          50.53          -12.9          6.271         -40.91           65.0          174.4          48.14          63.44
     0.365              -43.54          19.63          37.89          50.54          -12.9          6.271          -40.7          64.89          173.9          48.14          63.54
    0.3775              -43.53          19.65          37.98          50.55          -12.9          6.271         -40.46          64.75          173.3          48.14          63.64
    0.3901              -43.52          19.68          38.07          50.56          -12.9          6.271         -40.18           64.6          172.7          48.14          63.77
    0.4027              -43.51          19.71          38.18          50.57         -12.91          6.272         -39.86          64.42          171.9          48.14          63.92
    0.4153               -43.5          19.75          38.31          50.58         -12.91          6.272         -39.49          64.22          171.0          48.15          64.08
    0.4279              -43.49           19.8          38.46          50.59         -12.92          6.272         -39.05          63.97          170.0          48.15          64.28
    0.4405              -43.48          19.86          38.64          50.61         -12.92          6.273         -38.54          63.69          168.8          48.15          64.51
    0.4531              -43.46          19.92          38.85          50.62         -12.93          6.274         -37.93          63.35          167.4          48.15          64.79
    0.4656              -43.44           20.0          39.11          50.65         -12.94          6.274          -37.2          62.95          165.6          48.16          65.12
    0.4782              -43.42          20.09          39.41          50.67         -12.95          6.275         -36.32          62.46          163.5          48.16          65.52
    0.4908              -43.39          20.21          39.79          50.71         -12.96          6.276         -35.24          61.86          161.0          48.17          66.01
    0.5034              -43.36          20.35          40.25          50.75         -12.98          6.277         -33.91          61.12          157.8          48.17          66.62
     0.516              -43.31          20.53          40.83           50.8         -12.99          6.279         -32.24           60.2          153.9          48.18          67.37
    0.5286              -43.26          20.75          41.56          50.86         -13.02          6.281         -30.15          59.04          148.9          48.19          68.32
    0.5411              -43.19          21.03          42.48          50.94         -13.05          6.284         -27.49          57.56          142.7           48.2          69.53
    0.5537              -43.09           21.4          43.66          51.04         -13.09          6.287         -24.09          55.68          134.6          48.22          71.07
    0.5663              -42.98          21.86          45.18          51.18         -13.14          6.291         -19.72          53.25          124.3          48.24          73.06
    0.5789              -42.83          22.46          47.12          51.34          -13.2          6.297         -14.13          50.16          111.0          48.27          75.59
    0.5915              -42.64           23.2          49.56          51.56         -13.28          6.304         -7.114          46.27          94.44           48.3          78.77
    0.6041              -42.42          24.12          52.53          51.82         -13.38          6.312           1.44          41.53           74.2          48.35          82.65
    0.6167              -42.15          25.17          55.98          52.12         -13.49          6.322          11.35          36.03          50.74          48.39          87.15
    0.6292              -41.87          26.32          59.71          52.44         -13.61          6.332          22.09          30.08          25.34          48.45          92.02
    0.6418              -41.58          27.46          63.44          52.77         -13.73          6.343          32.83          24.13       -0.06423           48.5          96.89
    0.6544              -41.32          28.52          66.88          53.07         -13.85          6.352          42.74          18.63         -23.52          48.55          101.4
     0.667              -41.09          29.43          69.85          53.33         -13.95          6.361          51.29          13.89         -43.76          48.59          105.3
    0.6796               -40.9          30.18          72.29          53.54         -14.02          6.367          58.31          9.998         -60.37          48.62          108.5
    0.6922              -40.75          30.77          74.23          53.71         -14.09          6.373           63.9          6.904         -73.58          48.65          111.0
    0.7047              -40.64          31.24          75.75          53.84         -14.14          6.377          68.27          4.481         -83.92          48.67          113.0
    0.7173              -40.55           31.6          76.93          53.94         -14.18          6.381          71.67          2.593         -91.98          48.69          114.5
    0.7299              -40.48          31.88          77.86          54.02         -14.21          6.383          74.33          1.119         -98.27           48.7          115.7
    0.7425              -40.42          32.11          78.58          54.09         -14.23          6.385          76.42       -0.04167         -103.2          48.71          116.7
